<svg width="15" height="20" viewBox="0 0 15 20" fill="none" xmlns="http://www.w3.org/2000/svg">
<path d="M12 0H6C5.20435 0 4.44129 0.332706 3.87868 0.924926C3.31607 1.51715 3 2.32037 3 3.15789V7.36842H4V3.15789C4 2.59954 4.21071 2.06406 4.58579 1.66925C4.96086 1.27444 5.46957 1.05263 6 1.05263H12C12.5304 1.05263 13.0391 1.27444 13.4142 1.66925C13.7893 2.06406 14 2.59954 14 3.15789V16.8421C14 17.4005 13.7893 17.9359 13.4142 18.3308C13.0391 18.7256 12.5304 18.9474 12 18.9474H6C5.46957 18.9474 4.96086 18.7256 4.58579 18.3308C4.21071 17.9359 4 17.4005 4 16.8421V12.6316H3V16.8421C3 17.6796 3.31607 18.4829 3.87868 19.0751C4.44129 19.6673 5.20435 20 6 20H12C12.7956 20 13.5587 19.6673 14.1213 19.0751C14.6839 18.4829 15 17.6796 15 16.8421V3.15789C15 2.32037 14.6839 1.51715 14.1213 0.924926C13.5587 0.332706 12.7956 0 12 0ZM0 9.47368H10.25L7 6.05263L7.664 5.26316L12.164 10L7.664 14.7368L7 13.9474L10.25 10.5263H0V9.47368Z" fill="white"/>
</svg>
